<?xml version="1.0" encoding="utf-8"?>
<!-- Generator: Adobe Illustrator 15.0.0, SVG Export Plug-In . SVG Version: 6.00 Build 0)  -->
<!DOCTYPE svg PUBLIC "-//W3C//DTD SVG 1.1//EN" "http://www.w3.org/Graphics/SVG/1.1/DTD/svg11.dtd">
<svg version="1.1" id="Layer_1" xmlns="http://www.w3.org/2000/svg" xmlns:xlink="http://www.w3.org/1999/xlink" x="0px" y="0px"
	 width="426px" height="79px" viewBox="0 0 426 79" enable-background="new 0 0 426 79" xml:space="preserve">
<title>logo</title>
<desc>Created with Sketch.</desc>
<!-- <text transform="matrix(1 0 0 1 6 54)" fill="#F89820" font-family="'MayekaBoldDemo'" font-size="70" letter-spacing="-6">Weatherdog</text> -->
<g enable-background="new    ">
	<path fill="none" stroke="#FFFFFF" stroke-width="6" d="M79.76,4.439L56.552,56.153L44.486,29.22L30.062,55.606L7.367,4.439h10.835
		l12.783,28.882l8.442-15.415L33.412,4.439h10.835l12.339,27.549L68.925,4.439H79.76z"/>
	<path fill="none" stroke="#FFFFFF" stroke-width="6" d="M88.974,43.199c1.914,1.801,4.261,2.7,7.041,2.7
		c0.866,0,1.789-0.091,2.769-0.273c3.76-0.729,6.676-2.438,8.75-5.127l6.733,5.332c-3.19,5.31-8.352,8.351-15.483,9.126
		c-1.003,0.113-1.982,0.171-2.939,0.171c-5.856,0-10.767-1.982-14.731-5.947C77.17,45.239,75.2,40.477,75.2,34.894
		c0-5.56,1.971-10.311,5.913-14.253c3.942-3.965,8.704-5.947,14.287-5.947c3.532,0,6.847,0.889,9.946,2.666
		c4.831,2.734,7.861,6.449,9.092,11.143L88.974,43.199z M101.484,26.349c-1.732-1.299-3.623-2.027-5.674-2.188
		c-0.251-0.022-0.501-0.034-0.752-0.034c-1.641,0-3.202,0.41-4.683,1.23c-3.509,1.914-5.264,4.979-5.264,9.194
		c0,0.41,0.011,0.82,0.034,1.23L101.484,26.349z"/>
	<path fill="none" stroke="#FFFFFF" stroke-width="6" d="M144.98,18.385V15.89h9.912V54h-9.912v-2.495
		c-2.734,2.416-6.164,3.623-10.288,3.623c-5.583,0-10.345-1.971-14.287-5.913c-3.942-3.941-5.913-8.704-5.913-14.287
		c0-5.56,1.971-10.311,5.913-14.253c3.942-3.965,8.704-5.947,14.287-5.947C138.816,14.728,142.246,15.947,144.98,18.385z
		 M144.98,34.928c0-3.008-1.003-5.582-3.008-7.725c-2.005-2.142-4.432-3.213-7.28-3.213c-2.849,0-5.275,1.071-7.28,3.213
		c-2.005,2.143-3.008,4.717-3.008,7.725c0,3.031,1.002,5.617,3.008,7.759c2.005,2.119,4.432,3.179,7.28,3.179
		c2.848,0,5.275-1.06,7.28-3.179c2.005-2.142,3.008-4.717,3.008-7.725V34.928z"/>
	<path fill="none" stroke="#FFFFFF" stroke-width="6" d="M172.344,4.439v11.45h6.46v9.878h-6.46V54h-9.912V25.768h-6.46V15.89h6.46
		V4.439H172.344z"/>
	<path fill="none" stroke="#FFFFFF" stroke-width="6" d="M189.796,4.439v14.8c2.324-3.008,5.753-4.512,10.288-4.512
		c5.583,0,10.356,1.972,14.321,5.913c3.942,3.965,5.913,8.728,5.913,14.287V54h-9.912V34.928c0-2.825-1.003-5.24-3.008-7.246
		c-2.028-2.027-4.466-3.042-7.314-3.042c-2.826,0-5.252,1.015-7.28,3.042c-2.005,1.982-3.008,4.398-3.008,7.246V54h-9.912V4.439
		H189.796z"/>
	<path fill="none" stroke="#FFFFFF" stroke-width="6" d="M235.855,43.199c1.914,1.801,4.261,2.7,7.041,2.7
		c0.865,0,1.789-0.091,2.769-0.273c3.76-0.729,6.677-2.438,8.75-5.127l6.733,5.332c-3.19,5.31-8.352,8.351-15.483,9.126
		c-1.003,0.113-1.982,0.171-2.939,0.171c-5.856,0-10.767-1.982-14.731-5.947c-3.942-3.941-5.913-8.704-5.913-14.287
		c0-5.56,1.971-10.311,5.913-14.253c3.941-3.965,8.704-5.947,14.287-5.947c3.531,0,6.848,0.889,9.946,2.666
		c4.831,2.734,7.861,6.449,9.092,11.143L235.855,43.199z M248.365,26.349c-1.732-1.299-3.623-2.027-5.674-2.188
		c-0.251-0.022-0.502-0.034-0.752-0.034c-1.641,0-3.201,0.41-4.683,1.23c-3.509,1.914-5.264,4.979-5.264,9.194
		c0,0.41,0.011,0.82,0.034,1.23L248.365,26.349z"/>
	<path fill="none" stroke="#FFFFFF" stroke-width="6" d="M288.137,27.101c-1.777-1.822-3.92-2.734-6.426-2.734
		c-2.508,0-4.638,0.912-6.393,2.734c-1.777,1.823-2.666,4.022-2.666,6.597V54h-9.912V15.89h9.912v2.666
		c1.892-2.552,4.91-3.828,9.059-3.828c5.49,0,10.049,1.972,13.672,5.913c1.754,1.914,3.076,4.045,3.965,6.392l-9.092,3.418
		C289.822,29.22,289.115,28.104,288.137,27.101z"/>
	<path fill="none" stroke="#FFFFFF" stroke-width="6" d="M316.833,14.728c4.124,0,7.554,1.22,10.288,3.657V4.439h9.912V54h-9.912
		v-2.495c-2.734,2.416-6.164,3.623-10.288,3.623c-5.583,0-10.345-1.971-14.287-5.913c-3.942-3.941-5.913-8.704-5.913-14.287
		c0-5.56,1.971-10.311,5.913-14.253C306.488,16.71,311.25,14.728,316.833,14.728z M327.121,34.928c0-3.008-1.003-5.582-3.008-7.725
		c-2.006-2.142-4.433-3.213-7.28-3.213c-2.849,0-5.275,1.071-7.28,3.213c-2.006,2.143-3.008,4.717-3.008,7.725
		c0,3.031,1.002,5.617,3.008,7.759c2.005,2.119,4.432,3.179,7.28,3.179c2.848,0,5.274-1.06,7.28-3.179
		c2.005-2.142,3.008-4.717,3.008-7.725V34.928z"/>
	<path fill="none" stroke="#FFFFFF" stroke-width="6" d="M358.997,14.728c5.582,0,10.345,1.982,14.287,5.947
		c3.941,3.942,5.913,8.693,5.913,14.253c0,5.583-1.972,10.346-5.913,14.287c-3.942,3.942-8.705,5.913-14.287,5.913
		c-5.583,0-10.346-1.971-14.287-5.913c-3.942-3.941-5.913-8.704-5.913-14.287c0-5.56,1.971-10.311,5.913-14.253
		C348.651,16.71,353.414,14.728,358.997,14.728z M351.717,27.203c-2.006,2.143-3.008,4.717-3.008,7.725
		c0,3.031,1.002,5.617,3.008,7.759c2.005,2.119,4.432,3.179,7.28,3.179c2.848,0,5.274-1.06,7.28-3.179
		c2.005-2.142,3.008-4.728,3.008-7.759c0-3.008-1.003-5.582-3.008-7.725c-2.006-2.142-4.433-3.213-7.28-3.213
		C356.148,23.99,353.722,25.062,351.717,27.203z"/>
</g>
<text transform="matrix(1 0 0 1 376.0566 54)" fill="#F89820" font-family="'MayekaBoldDemo'" font-size="70" letter-spacing="-6"> </text>
<text transform="matrix(1 0 0 1 376.0566 54)" fill="none" stroke="#FFFFFF" stroke-width="6" font-family="'MayekaBoldDemo'" font-size="70" letter-spacing="-6"> </text>
<g enable-background="new    ">
	<path fill="none" stroke="#FFFFFF" stroke-width="6" d="M391.95,61.52c2.324,2.142,5.093,3.213,8.306,3.213s5.873-1.065,7.98-3.195
		c2.107-2.132,3.162-4.712,3.162-7.742c0-0.318-0.012-0.626-0.034-0.923v-1.641c-2.62,2.598-6.517,3.896-11.689,3.896
		c-5.811,0-10.687-1.971-14.629-5.913c-3.942-3.941-5.913-8.704-5.913-14.287c0-5.582,1.971-10.345,5.913-14.287
		c3.942-3.965,9.046-5.947,15.312-5.947c4.717,0,8.386,1.299,11.006,3.896v-2.734h9.878V54h0.034c0,5.56-1.982,10.322-5.947,14.287
		c-3.942,3.941-8.818,5.913-14.629,5.913c-4.534,0-8.887-1.504-13.057-4.512c-3.555-2.689-6.118-6.027-7.69-10.015l8.545-2.803
		C389.341,58.693,390.492,60.243,391.95,61.52z M400.358,23.99c-3.532,0-6.187,1.06-7.964,3.179c-2.233,2.143-3.35,4.729-3.35,7.759
		c0,3.008,1.116,5.583,3.35,7.725c1.777,2.143,4.432,3.213,7.964,3.213c3.076,0,5.742-1.07,7.998-3.213
		c2.005-2.142,3.008-4.717,3.008-7.725c0-3.03-1.003-5.616-3.008-7.759C406.101,25.05,403.435,23.99,400.358,23.99z"/>
</g>
<!-- <text transform="matrix(1 0 0 1 376.0566 23.9761)" fill="#F89820" font-family="'MayekaBoldDemo'" font-size="70" letter-spacing="-6"> </text> -->
<g>
	<g>
		<polygon fill="#F89820" points="68.925,4.439 56.586,31.988 44.247,4.439 33.412,4.439 39.428,17.906 30.985,33.321 18.202,4.439
			7.367,4.439 30.062,55.606 44.486,29.22 56.552,56.153 79.76,4.439 		"/>
		<path fill="#F89820" d="M98.784,45.626c-0.98,0.183-1.903,0.273-2.769,0.273c-2.78,0-5.127-0.899-7.041-2.7l25.464-14.697
			c-1.23-4.693-4.261-8.408-9.092-11.143c-3.099-1.777-6.415-2.666-9.946-2.666c-5.583,0-10.345,1.982-14.287,5.947
			C77.17,24.583,75.2,29.334,75.2,34.894c0,5.583,1.971,10.346,5.913,14.287c3.965,3.965,8.875,5.947,14.731,5.947
			c0.957,0,1.937-0.058,2.939-0.171c7.132-0.775,12.293-3.816,15.483-9.126l-6.733-5.332
			C105.46,43.188,102.543,44.897,98.784,45.626z M85.112,34.552c0-4.215,1.754-7.28,5.264-9.194c1.481-0.82,3.042-1.23,4.683-1.23
			c0.25,0,0.501,0.012,0.752,0.034c2.051,0.16,3.942,0.889,5.674,2.188l-16.338,9.434C85.123,35.372,85.112,34.962,85.112,34.552z"
			/>
	</g>
	<path fill="#F89820" d="M144.98,18.385c-2.734-2.438-6.164-3.657-10.288-3.657c-5.583,0-10.345,1.982-14.287,5.947
		c-3.942,3.942-5.913,8.693-5.913,14.253c0,5.583,1.971,10.346,5.913,14.287c3.942,3.942,8.704,5.913,14.287,5.913
		c4.124,0,7.554-1.207,10.288-3.623V54h9.912V15.89h-9.912V18.385z M144.98,34.962c0,3.008-1.003,5.583-3.008,7.725
		c-2.005,2.119-4.432,3.179-7.28,3.179c-2.849,0-5.275-1.06-7.28-3.179c-2.005-2.142-3.008-4.728-3.008-7.759
		c0-3.008,1.002-5.582,3.008-7.725c2.005-2.142,4.432-3.213,7.28-3.213c2.848,0,5.275,1.071,7.28,3.213
		c2.005,2.143,3.008,4.717,3.008,7.725V34.962z"/>
	<polygon fill="#F89820" points="172.344,4.439 162.432,4.439 162.432,15.89 155.972,15.89 155.972,25.768 162.432,25.768
		162.432,54 172.344,54 172.344,25.768 178.804,25.768 178.804,15.89 172.344,15.89 	"/>
	<path fill="#F89820" d="M200.084,14.728c-4.535,0-7.964,1.504-10.288,4.512v-14.8h-9.912V54h9.912V34.928
		c0-2.848,1.002-5.264,3.008-7.246c2.028-2.027,4.455-3.042,7.28-3.042c2.848,0,5.286,1.015,7.314,3.042
		c2.005,2.006,3.008,4.421,3.008,7.246V54h9.912V34.928c0-5.56-1.971-10.322-5.913-14.287
		C210.44,16.699,205.667,14.728,200.084,14.728z"/>
	<path fill="#F89820" d="M252.228,17.359c-3.099-1.777-6.415-2.666-9.946-2.666c-5.583,0-10.346,1.982-14.287,5.947
		c-3.942,3.942-5.913,8.693-5.913,14.253c0,5.583,1.971,10.346,5.913,14.287c3.965,3.965,8.875,5.947,14.731,5.947
		c0.957,0,1.937-0.058,2.939-0.171c7.132-0.775,12.293-3.816,15.483-9.126l-6.733-5.332c-2.073,2.689-4.99,4.398-8.75,5.127
		c-0.979,0.183-1.903,0.273-2.769,0.273c-2.78,0-5.127-0.899-7.041-2.7l25.464-14.697C260.089,23.809,257.059,20.094,252.228,17.359
		z M232.027,35.782c-0.023-0.41-0.034-0.82-0.034-1.23c0-4.215,1.755-7.28,5.264-9.194c1.481-0.82,3.042-1.23,4.683-1.23
		c0.25,0,0.501,0.012,0.752,0.034c2.051,0.16,3.941,0.889,5.674,2.188L232.027,35.782z"/>
	<path fill="#F89820" d="M327.121,18.385c-2.734-2.438-6.164-3.657-10.288-3.657c-5.583,0-10.345,1.982-14.287,5.947
		c-1.565,1.566-2.808,3.266-3.751,5.086c-0.855-1.848-1.982-3.56-3.412-5.12c-3.623-3.941-8.182-5.913-13.672-5.913
		c-4.148,0-7.167,1.276-9.059,3.828V15.89h-9.912V54h9.912V33.697c0-2.574,0.889-4.773,2.666-6.597
		c1.755-1.822,3.885-2.734,6.393-2.734c2.506,0,4.648,0.912,6.426,2.734c0.979,1.003,1.686,2.119,2.119,3.35l7.731-2.906
		c-0.894,2.28-1.354,4.737-1.354,7.384c0,5.583,1.971,10.346,5.913,14.287c3.942,3.942,8.704,5.913,14.287,5.913
		c4.124,0,7.554-1.207,10.288-3.623V54h9.912V4.439h-9.912V18.385z M327.121,34.962c0,3.008-1.003,5.583-3.008,7.725
		c-2.006,2.119-4.433,3.179-7.28,3.179c-2.849,0-5.275-1.06-7.28-3.179c-2.006-2.142-3.008-4.728-3.008-7.759
		c0-3.008,1.002-5.582,3.008-7.725c2.005-2.142,4.432-3.213,7.28-3.213c2.848,0,5.274,1.071,7.28,3.213
		c2.005,2.143,3.008,4.717,3.008,7.725V34.962z"/>
	<path fill="#F89820" d="M421.242,54V15.855h-9.878v2.734c-2.62-2.598-6.289-3.896-11.006-3.896c-6.267,0-11.37,1.982-15.312,5.947
		c-3.771,3.771-5.717,8.301-5.881,13.572c-0.165-5.249-2.111-9.768-5.881-13.538c-3.942-3.965-8.705-5.947-14.287-5.947
		c-5.583,0-10.346,1.982-14.287,5.947c-3.942,3.942-5.913,8.693-5.913,14.253c0,5.583,1.971,10.346,5.913,14.287
		c3.941,3.942,8.704,5.913,14.287,5.913c5.582,0,10.345-1.971,14.287-5.913c3.77-3.77,5.717-8.299,5.881-13.57
		c0.164,5.271,2.11,9.801,5.881,13.57c3.942,3.942,8.818,5.913,14.629,5.913c5.173,0,9.069-1.299,11.689-3.896v1.641
		c0.022,0.297,0.034,0.604,0.034,0.923c0,3.03-1.055,5.61-3.162,7.742c-2.107,2.13-4.768,3.195-7.98,3.195s-5.981-1.071-8.306-3.213
		c-1.458-1.276-2.609-2.826-3.452-4.648l-8.545,2.803c1.572,3.987,4.136,7.325,7.69,10.015c4.17,3.008,8.522,4.512,13.057,4.512
		c5.811,0,10.687-1.972,14.629-5.913c3.965-3.965,5.947-8.728,5.947-14.287H421.242z M366.277,42.687
		c-2.006,2.119-4.433,3.179-7.28,3.179c-2.849,0-5.275-1.06-7.28-3.179c-2.006-2.142-3.008-4.728-3.008-7.759
		c0-3.008,1.002-5.582,3.008-7.725c2.005-2.142,4.432-3.213,7.28-3.213c2.848,0,5.274,1.071,7.28,3.213
		c2.005,2.143,3.008,4.717,3.008,7.725C369.285,37.959,368.282,40.545,366.277,42.687z M408.356,42.652
		c-2.256,2.143-4.922,3.213-7.998,3.213c-3.532,0-6.187-1.07-7.964-3.213c-2.233-2.142-3.35-4.717-3.35-7.725
		c0-3.03,1.116-5.616,3.35-7.759c1.777-2.119,4.432-3.179,7.964-3.179c3.076,0,5.742,1.06,7.998,3.179
		c2.005,2.143,3.008,4.729,3.008,7.759C411.364,37.936,410.361,40.511,408.356,42.652z"/>
</g>
</svg>
